<svg width="18" height="20" viewBox="0 0 18 20" fill="none" xmlns="http://www.w3.org/2000/svg">
<path fill-rule="evenodd" clip-rule="evenodd" d="M6.20412 2.13575C7.09202 1.88462 8.02967 1.75 9 1.75C9.97033 1.75 10.908 1.88462 11.7959 2.13575C12.1945 2.24849 12.609 2.01676 12.7217 1.61818C12.8344 1.21961 12.6027 0.805108 12.2041 0.692376C11.1847 0.404046 10.1097 0.25 9 0.25C7.89028 0.25 6.81531 0.404046 5.79588 0.692376C5.3973 0.805108 5.16558 1.21961 5.27831 1.61818C5.39104 2.01676 5.80554 2.24849 6.20412 2.13575ZM17.5 11.5C17.5 16.1944 13.6944 20 9 20C4.30558 20 0.5 16.1944 0.5 11.5C0.5 6.80558 4.30558 3 9 3C13.6944 3 17.5 6.80558 17.5 11.5ZM9.75 7C9.75 6.58579 9.41421 6.25 9 6.25C8.58579 6.25 8.25 6.58579 8.25 7V10.7007C7.80165 10.96 7.5 11.4448 7.5 12C7.5 12.8284 8.17157 13.5 9 13.5C9.82843 13.5 10.5 12.8284 10.5 12C10.5 11.4448 10.1984 10.96 9.75 10.7007V7Z" fill="white"/>
</svg>
